<?xml version="1.0" encoding="UTF-8" standalone="no"?>
<svg xmlns="http://www.w3.org/2000/svg" xmlns:xlink="http://www.w3.org/1999/xlink" style="isolation:isolate"
     viewBox="0 0 1024 1024" width="1024pt" height="1024pt">
    <defs>
        <clipPath id="_clipPath_VLhmLKF27nF926q38ytCl20StHRMDv8J">
            <rect width="1024" height="1024"/>
        </clipPath>
    </defs>
    <g clip-path="url(#_clipPath_VLhmLKF27nF926q38ytCl20StHRMDv8J)">
        <rect width="1024" height="1024" style="fill:rgb(42,42,42)" fill-opacity="0"/>
        <g>
            <path d=" M 391.435 916.828 Q 471.605 721.151 545.738 636.285 C 619.871 551.418 594.377 545.715 537.688 472.589 C 480.998 399.462 436.719 312.918 387.409 291.45 L 391.435 264.614 Q 680.586 344.45 724.193 333.045 Q 515.548 293.462 449.131 264.614 C 382.713 235.766 383.049 223.355 396.802 209.602 C 410.555 195.849 517.226 135.134 572.574 125.07 Q 627.922 115.007 631.611 119.703 Q 718.826 81.128 751.029 161.298 Q 869.999 277.138 857.029 425.627 C 844.058 574.116 851.214 611.238 869.105 638.968 C 886.995 666.698 978.235 769.795 967.054 916.828 L 967.054 916.828 L 391.435 916.828 Z "
                  fill="currentColor"/>
            <path d=" M 546.384 682.698 C 540.011 678.17 349.479 687.059 264.612 657.205 Q 179.746 627.35 244.486 469.357 Q 327.843 456.275 401.473 260.041 L 174.714 113.788 Q 26.467 257.191 63.347 368.724 Q 84.145 431.62 159.954 457.281 Q 105.277 689.575 206.916 733.685 Q 308.555 777.796 500.764 772.597 Q 552.757 687.227 546.384 682.698 Z "
                  fill="currentColor"/>
            <path d=" M 646.718 129.096 Q 670.87 129.096 653.427 150.564 Q 659.8 170.104 654.769 173.374 Q 649.737 176.645 644.035 154.589 Q 617.912 136.392 646.718 129.096 Z "
                  fill="var(--primary-bg)"/>
        </g>
    </g>
</svg>